<?xml version="1.0" encoding="utf-8"?>
<!-- Generator: Adobe Illustrator 27.2.0, SVG Export Plug-In . SVG Version: 6.00 Build 0)  -->
<svg version="1.1" xmlns="http://www.w3.org/2000/svg" xmlns:xlink="http://www.w3.org/1999/xlink" x="0px" y="0px"
	 viewBox="0 0 640 640" style="enable-background:new 0 0 640 640;" xml:space="preserve">
<style type="text/css">
	.st0{fill:#FDC651;}
	.st1{fill:#9457F6;}
	.st2{fill:#976B7A;}
	.st3{fill:#F7F7F7;}
	.st4{fill:#252525;}
	.st5{fill:#FFFFFF;}
</style>
<g id="Layer_1">
	<g>
		<g>
			<path class="st0" d="M222.2,298.1V279c0-5.6-6.1-9.2-11-6.3c-11.6,6.7-29.4,17-37.2,21.5c-2.5,1.4-4,4-4,6.9c0,9.1,0,29.6,0,43
				c0,5.6,6.1,9.2,11,6.3l15.1-8.7l18.4-10.8c4.8-2.8,7.8-7.9,7.8-13.5L222.2,298.1z"/>
			<path class="st1" d="M237.4,289.4l-15.1,8.7c-7.3,4.2-14.1,8.2-19.3,11.2c-4.7,2.7-7.6,7.7-7.6,13.1l0.7,19.3v19.2
				c0,5.6,6.1,9.2,11,6.3l36.9-21.3c2.7-1.5,4.3-4.4,4.3-7.5v-42.6C248.3,290.1,242.2,286.5,237.4,289.4z"/>
			<path class="st2" d="M222.3,317.4c0,5.6-3,10.7-7.8,13.5l-18.4,10.8l-0.7-19.3c0-5.4,2.9-10.4,7.6-13.1c5.2-3,11.9-6.9,19.3-11.2
				L222.3,317.4z"/>
		</g>
		<g>
			<g>
				<path class="st4" d="M259.7,320.3v-33.5h22.6v6.3h-15.1v6.6h13.4v6.2h-13.4v8.1h16.2v6.3H259.7z"/>
				<path class="st4" d="M311.4,320.3c-2.2-3.8-4.5-7.6-7-11.4c-2.5-3.7-5.2-7.3-8-10.6v21.9H289v-33.5h6.1c1.1,1.1,2.2,2.4,3.5,3.9
					s2.6,3.2,3.9,5c1.3,1.8,2.7,3.6,4,5.5c1.3,1.9,2.6,3.7,3.7,5.4v-19.8h7.5v33.5H311.4z"/>
				<path class="st4" d="M354.8,303.5c0,2.9-0.5,5.4-1.4,7.6c-0.9,2.2-2.2,3.9-3.8,5.4c-1.7,1.4-3.7,2.5-6.1,3.2
					c-2.4,0.7-5.1,1.1-8,1.1c-1.4,0-2.9-0.1-4.7-0.2c-1.8-0.1-3.6-0.3-5.3-0.7v-32.6c1.7-0.3,3.6-0.5,5.4-0.7
					c1.9-0.1,3.5-0.2,4.9-0.2c2.9,0,5.5,0.3,7.8,1s4.3,1.7,6,3c1.7,1.4,3,3.2,3.9,5.3C354.4,297.9,354.8,300.5,354.8,303.5z
					 M333,314.1c0.4,0,0.8,0.1,1.2,0.1c0.5,0,1,0,1.7,0c3.8,0,6.6-1,8.4-2.9c1.8-1.9,2.7-4.5,2.7-7.9c0-3.5-0.9-6.2-2.6-8
					c-1.7-1.8-4.5-2.7-8.3-2.7c-0.5,0-1,0-1.6,0c-0.5,0-1.1,0.1-1.5,0.1V314.1z"/>
				<path class="st4" d="M383.5,313.8v6.5h-22.4v-33.5h7.5v27H383.5z"/>
				<path class="st4" d="M388.3,320.3v-33.5h22.6v6.3h-15.1v6.6h13.4v6.2h-13.4v8.1h16.2v6.3H388.3z"/>
				<path class="st4" d="M426.7,314.5c1.1,0,1.9-0.1,2.6-0.3c0.7-0.2,1.2-0.4,1.7-0.7c0.4-0.3,0.7-0.7,0.9-1.1s0.2-0.9,0.2-1.4
					c0-1.1-0.5-2-1.5-2.7s-2.8-1.5-5.3-2.3c-1.1-0.4-2.2-0.8-3.3-1.3c-1.1-0.5-2.1-1.1-2.9-1.9s-1.6-1.7-2.1-2.8
					c-0.5-1.1-0.8-2.4-0.8-3.9c0-1.5,0.3-2.9,0.9-4.2c0.6-1.2,1.4-2.3,2.5-3.2s2.4-1.5,3.9-2c1.5-0.5,3.2-0.7,5.1-0.7
					c2.3,0,4.2,0.2,5.8,0.7c1.6,0.5,3,1,4.1,1.6l-2.2,5.9c-0.9-0.5-2-0.9-3.1-1.3s-2.5-0.6-4.1-0.6c-1.8,0-3.1,0.2-3.9,0.7
					c-0.8,0.5-1.2,1.3-1.2,2.3c0,0.6,0.1,1.1,0.4,1.5c0.3,0.4,0.7,0.8,1.2,1.1c0.5,0.3,1.1,0.6,1.8,0.9c0.7,0.3,1.5,0.6,2.3,0.8
					c1.7,0.6,3.3,1.3,4.5,1.9c1.3,0.6,2.4,1.4,3.2,2.2c0.9,0.8,1.5,1.8,1.9,2.9c0.4,1.1,0.6,2.5,0.6,4.1c0,3.1-1.1,5.5-3.3,7.3
					c-2.2,1.7-5.5,2.6-9.9,2.6c-1.5,0-2.8-0.1-4-0.3c-1.2-0.2-2.2-0.4-3.2-0.7c-0.9-0.3-1.7-0.5-2.4-0.8c-0.7-0.3-1.2-0.6-1.7-0.8
					l2.1-6c1,0.5,2.2,1,3.7,1.5C422.8,314.3,424.6,314.5,426.7,314.5z"/>
				<path class="st4" d="M454.9,314.5c1.1,0,1.9-0.1,2.6-0.3c0.7-0.2,1.2-0.4,1.7-0.7c0.4-0.3,0.7-0.7,0.9-1.1s0.2-0.9,0.2-1.4
					c0-1.1-0.5-2-1.5-2.7s-2.8-1.5-5.3-2.3c-1.1-0.4-2.2-0.8-3.3-1.3c-1.1-0.5-2.1-1.1-2.9-1.9s-1.6-1.7-2.1-2.8
					c-0.5-1.1-0.8-2.4-0.8-3.9c0-1.5,0.3-2.9,0.9-4.2c0.6-1.2,1.4-2.3,2.5-3.2s2.4-1.5,3.9-2c1.5-0.5,3.2-0.7,5.1-0.7
					c2.3,0,4.2,0.2,5.8,0.7c1.6,0.5,3,1,4.1,1.6l-2.2,5.9c-0.9-0.5-2-0.9-3.1-1.3s-2.5-0.6-4.1-0.6c-1.8,0-3.1,0.2-3.9,0.7
					c-0.8,0.5-1.2,1.3-1.2,2.3c0,0.6,0.1,1.1,0.4,1.5c0.3,0.4,0.7,0.8,1.2,1.1c0.5,0.3,1.1,0.6,1.8,0.9c0.7,0.3,1.5,0.6,2.3,0.8
					c1.7,0.6,3.3,1.3,4.5,1.9c1.3,0.6,2.4,1.4,3.2,2.2c0.9,0.8,1.5,1.8,1.9,2.9c0.4,1.1,0.6,2.5,0.6,4.1c0,3.1-1.1,5.5-3.3,7.3
					c-2.2,1.7-5.5,2.6-9.9,2.6c-1.5,0-2.8-0.1-4-0.3c-1.2-0.2-2.2-0.4-3.2-0.7c-0.9-0.3-1.7-0.5-2.4-0.8c-0.7-0.3-1.2-0.6-1.7-0.8
					l2.1-6c1,0.5,2.2,1,3.7,1.5C451,314.3,452.7,314.5,454.9,314.5z"/>
			</g>
			<g>
				<path class="st4" d="M279.5,341.2c0,2.1-0.3,4-1,5.5c-0.7,1.6-1.6,2.9-2.8,3.9c-1.2,1-2.7,1.8-4.4,2.3c-1.7,0.5-3.6,0.8-5.7,0.8
					c-1,0-2.1,0-3.3-0.1s-2.4-0.3-3.6-0.5v-23.7c1.1-0.3,2.3-0.4,3.6-0.5s2.4-0.1,3.4-0.1c2,0,3.9,0.2,5.6,0.7
					c1.7,0.5,3.1,1.2,4.4,2.3c1.2,1,2.1,2.3,2.8,3.9C279.1,337.2,279.5,339.1,279.5,341.2z M263.2,349.8c0.3,0,0.6,0,1,0.1
					s1,0,1.7,0c3,0,5.2-0.8,6.7-2.3c1.5-1.5,2.2-3.6,2.2-6.4c0-2.8-0.7-4.9-2.1-6.4c-1.4-1.5-3.7-2.2-6.7-2.2c-1.3,0-2.3,0-2.8,0.1
					V349.8z"/>
				<path class="st4" d="M307,341.2c0,2.1-0.3,3.9-0.9,5.5c-0.6,1.6-1.5,2.9-2.5,4c-1.1,1.1-2.3,1.9-3.8,2.4c-1.4,0.5-3,0.8-4.6,0.8
					s-3.2-0.3-4.6-0.8s-2.7-1.3-3.8-2.4c-1.1-1.1-1.9-2.4-2.6-4c-0.6-1.6-1-3.4-1-5.5c0-2.1,0.3-3.9,1-5.5c0.6-1.6,1.5-2.9,2.6-4
					c1.1-1.1,2.4-1.9,3.8-2.4c1.4-0.5,2.9-0.8,4.5-0.8s3.1,0.3,4.5,0.8c1.4,0.5,2.7,1.4,3.8,2.4s1.9,2.4,2.6,4
					C306.7,337.3,307,339.2,307,341.2z M287.9,341.2c0,1.3,0.2,2.6,0.5,3.6c0.3,1.1,0.8,2,1.4,2.8c0.6,0.8,1.4,1.4,2.3,1.8
					c0.9,0.4,1.9,0.6,3,0.6c1.1,0,2.1-0.2,3-0.6c0.9-0.4,1.7-1,2.3-1.8c0.6-0.8,1.1-1.7,1.4-2.8c0.3-1.1,0.5-2.3,0.5-3.6
					c0-1.3-0.2-2.6-0.5-3.6c-0.3-1.1-0.8-2-1.4-2.8c-0.6-0.8-1.4-1.4-2.3-1.8c-0.9-0.4-1.9-0.6-3-0.6c-1.1,0-2.1,0.2-3,0.6
					c-0.9,0.4-1.7,1-2.3,1.8c-0.6,0.8-1.1,1.7-1.4,2.8C288.1,338.7,287.9,339.9,287.9,341.2z"/>
				<path class="st4" d="M317.2,329.1c0.5,0.9,1.1,2,1.7,3.3c0.6,1.3,1.3,2.6,1.9,4.1c0.7,1.4,1.3,2.9,2,4.3
					c0.6,1.5,1.2,2.8,1.8,4.1c0.5-1.2,1.1-2.6,1.8-4.1c0.6-1.5,1.3-2.9,1.9-4.3c0.7-1.4,1.3-2.8,1.9-4.1c0.6-1.3,1.2-2.4,1.7-3.3h4
					c0.2,1.8,0.4,3.7,0.6,5.7s0.4,4.1,0.5,6.2s0.3,4.2,0.4,6.3c0.1,2.1,0.2,4.2,0.3,6.2h-4.4c-0.1-2.8-0.2-5.8-0.3-8.8
					c-0.1-3-0.3-5.9-0.6-8.7c-0.3,0.5-0.6,1.2-0.9,1.9s-0.7,1.6-1.1,2.4c-0.4,0.9-0.8,1.8-1.2,2.7c-0.4,0.9-0.8,1.9-1.2,2.7
					s-0.7,1.7-1.1,2.5c-0.3,0.8-0.6,1.4-0.8,2h-3.3c-0.2-0.5-0.5-1.2-0.8-2c-0.3-0.8-0.7-1.6-1.1-2.5s-0.8-1.8-1.2-2.7
					c-0.4-0.9-0.8-1.8-1.2-2.7c-0.4-0.9-0.8-1.7-1.1-2.4c-0.4-0.8-0.7-1.4-0.9-1.9c-0.3,2.8-0.5,5.7-0.6,8.7c-0.1,3-0.2,5.9-0.3,8.8
					h-4.4c0.1-2,0.2-4.1,0.3-6.3c0.1-2.2,0.3-4.3,0.4-6.4c0.2-2.1,0.3-4.2,0.5-6.2s0.4-3.8,0.6-5.5H317.2z"/>
				<path class="st4" d="M359.3,353.5c-0.3-1-0.7-1.9-1-2.9s-0.7-1.9-1-2.9h-10.3c-0.3,1-0.7,2-1,2.9c-0.3,1-0.7,1.9-1,2.8h-4.6
					c0.9-2.6,1.8-5,2.6-7.2c0.8-2.2,1.6-4.3,2.4-6.3c0.8-2,1.6-3.9,2.3-5.6c0.8-1.8,1.6-3.5,2.4-5.3h4.2c0.8,1.7,1.6,3.5,2.4,5.3
					c0.8,1.8,1.6,3.7,2.3,5.6c0.8,2,1.6,4.1,2.4,6.3c0.8,2.2,1.7,4.6,2.6,7.2H359.3z M352.1,333.8c-0.5,1.2-1.2,2.8-1.9,4.5
					c-0.7,1.8-1.4,3.7-2.2,5.8h8c-0.8-2.1-1.5-4-2.2-5.9C353.2,336.5,352.6,335,352.1,333.8z"/>
				<path class="st4" d="M367.1,329.1h4.4v24.4h-4.4V329.1z"/>
				<path class="st4" d="M393.9,353.5c-0.8-1.3-1.7-2.8-2.7-4.3c-1-1.5-2-3.1-3.1-4.7s-2.1-3.1-3.2-4.5c-1.1-1.5-2.1-2.8-3.1-4v17.5
					h-4.4v-24.4h3.6c0.9,1,2,2.2,3,3.5c1.1,1.4,2.2,2.8,3.3,4.2c1.1,1.5,2.1,2.9,3.2,4.4c1,1.5,1.9,2.8,2.7,4.1v-16.2h4.4v24.4
					H393.9z"/>
				<path class="st4" d="M409.4,350.2c1.6,0,2.8-0.3,3.5-0.8c0.7-0.5,1.1-1.3,1.1-2.3c0-0.6-0.1-1.1-0.4-1.5
					c-0.2-0.4-0.6-0.8-1.1-1.1c-0.5-0.3-1-0.7-1.7-1c-0.7-0.3-1.4-0.6-2.3-0.9c-0.8-0.3-1.7-0.6-2.4-1c-0.8-0.4-1.5-0.8-2.1-1.4
					c-0.6-0.5-1.1-1.2-1.4-1.9s-0.5-1.7-0.5-2.7c0-2.2,0.8-3.9,2.3-5.2c1.5-1.3,3.6-1.9,6.2-1.9c1.5,0,2.9,0.2,4.1,0.5
					c1.2,0.3,2.1,0.7,2.8,1.1l-1.4,3.6c-0.8-0.4-1.7-0.8-2.6-1c-1-0.2-1.9-0.4-2.9-0.4c-1.2,0-2.1,0.2-2.8,0.7s-1,1.2-1,2.1
					c0,0.5,0.1,1,0.3,1.4s0.5,0.7,1,1c0.4,0.3,0.9,0.6,1.4,0.8c0.6,0.3,1.2,0.5,1.8,0.7c1.2,0.4,2.2,0.9,3.1,1.3s1.7,1,2.3,1.5
					c0.6,0.6,1.1,1.3,1.4,2.1c0.3,0.8,0.5,1.8,0.5,2.9c0,2.2-0.8,3.9-2.3,5.1s-3.8,1.8-6.9,1.8c-1,0-1.9-0.1-2.8-0.2
					c-0.8-0.1-1.6-0.3-2.2-0.5c-0.6-0.2-1.2-0.4-1.7-0.6c-0.5-0.2-0.8-0.4-1.1-0.5l1.3-3.6c0.6,0.4,1.5,0.7,2.6,1.1
					C406.6,350,407.9,350.2,409.4,350.2z"/>
			</g>
		</g>
	</g>
</g>
<g id="Layer_2">
</g>
</svg>
